{
  "accessors": [
    {
      "bufferView": 2,
      "componentType": 5126,
      "count": 65532,
      "max": [
        8.891648292541504,
        0.30362898111343384,
        8.120617866516113
      ],
      "min": [
        -6.9763360023498535,
        -6.529262065887451,
        -8.778692245483398
      ],
      "type": "VEC3"
    },
    {
      "bufferView": 2,
      "byteOffset": 786384,
      "componentType": 5126,
      "count": 65532,
      "max": [
        0.9993911981582642,
        0.9998018741607666,
        0.9999933242797852
      ],
      "min": [
        -0.9999849796295166,
        -0.9999992847442627,
        -0.9999992847442627
      ],
      "type": "VEC3"
    },
    {
      "bufferView": 1,
      "componentType": 5126,
      "count": 65532,
      "max": [
        0.9997559785842896,
        0.9995269775390625
      ],
      "min": [
        0.00024399999529123306,
        0.00024399999529123306
      ],
      "type": "VEC2"
    },
    {
      "bufferView": 0,
      "componentType": 5125,
      "count": 306432,
      "type": "SCALAR"
    },
    {
      "bufferView": 2,
      "byteOffset": 1572768,
      "componentType": 5126,
      "count": 65533,
      "max": [
        9.110591888427734,
        0.6235877871513367,
        8.140772819519043
      ],
      "min": [
        -7.36071252822876,
        -7.371070861816406,
        -8.908060073852539
      ],
      "type": "VEC3"
    },
    {
      "bufferView": 2,
      "byteOffset": 2359164,
      "componentType": 5126,
      "count": 65533,
      "max": [
        0.9999819993972778,
        0.9999566674232483,
        0.9999992847442627
      ],
      "min": [
        -0.9999989867210388,
        -0.9999980926513672,
        -0.9999958276748657
      ],
      "type": "VEC3"
    },
    {
      "bufferView": 1,
      "byteOffset": 524256,
      "componentType": 5126,
      "count": 65533,
      "max": [
        0.9997559785842896,
        0.9997559785842896
      ],
      "min": [
        0.00024399999529123306,
        0.00024399999529123306
      ],
      "type": "VEC2"
    },
    {
      "bufferView": 0,
      "byteOffset": 1225728,
      "componentType": 5125,
      "count": 246639,
      "type": "SCALAR"
    },
    {
      "bufferView": 2,
      "byteOffset": 3145560,
      "componentType": 5126,
      "count": 43833,
      "max": [
        9.232671737670898,
        1.8520257472991943,
        8.140772819519043
      ],
      "min": [
        -7.555022239685059,
        -7.353524684906006,
        -8.992446899414063
      ],
      "type": "VEC3"
    },
    {
      "bufferView": 2,
      "byteOffset": 3671556,
      "componentType": 5126,
      "count": 43833,
      "max": [
        0.9999921321868896,
        1.0,
        0.9999923706054688
      ],
      "min": [
        -0.9999935626983643,
        -0.999999463558197,
        -0.9999992251396179
      ],
      "type": "VEC3"
    },
    {
      "bufferView": 1,
      "byteOffset": 1048520,
      "componentType": 5126,
      "count": 43833,
      "max": [
        0.9997559785842896,
        0.9997559785842896
      ],
      "min": [
        0.00024399999529123306,
        0.00024399999529123306
      ],
      "type": "VEC2"
    },
    {
      "bufferView": 0,
      "byteOffset": 2212284,
      "componentType": 5125,
      "count": 71121,
      "type": "SCALAR"
    },
    {
      "bufferView": 2,
      "byteOffset": 4197552,
      "componentType": 5126,
      "count": 65532,
      "max": [
        9.22464656829834,
        0.6565405130386353,
        7.940755844116211
      ],
      "min": [
        -7.4818620681762695,
        -7.313295841217041,
        -8.992446899414063
      ],
      "type": "VEC3"
    },
    {
      "bufferView": 2,
      "byteOffset": 4983936,
      "componentType": 5126,
      "count": 65532,
      "max": [
        0.9999897480010986,
        0.9999673962593079,
        0.9999964833259583
      ],
      "min": [
        -0.9999975562095642,
        -0.9999999403953552,
        -0.9999986886978149
      ],
      "type": "VEC3"
    },
    {
      "bufferView": 1,
      "byteOffset": 1399184,
      "componentType": 5126,
      "count": 65532,
      "max": [
        0.9997550249099731,
        1.9997559785842896
      ],
      "min": [
        0.00024399999529123306,
        1.0002540349960327
      ],
      "type": "VEC2"
    },
    {
      "bufferView": 0,
      "byteOffset": 2496768,
      "componentType": 5125,
      "count": 311904,
      "type": "SCALAR"
    },
    {
      "bufferView": 2,
      "byteOffset": 5770320,
      "componentType": 5126,
      "count": 25251,
      "max": [
        9.212586402893066,
        0.4792838394641876,
        7.94285774230957
      ],
      "min": [
        -7.462146282196045,
        -7.309885501861572,
        -8.955296516418457
      ],
      "type": "VEC3"
    },
    {
      "bufferView": 2,
      "byteOffset": 6073332,
      "componentType": 5126,
      "count": 25251,
      "max": [
        0.9999611377716064,
        0.9993882179260254,
        0.999999463558197
      ],
      "min": [
        -0.9999975562095642,
        -1.0,
        -0.9999986886978149
      ],
      "type": "VEC3"
    },
    {
      "bufferView": 1,
      "byteOffset": 1923440,
      "componentType": 5126,
      "count": 25251,
      "max": [
        0.9997529983520508,
        1.9997559785842896
      ],
      "min": [
        0.00024399999529123306,
        1.0002739429473877
      ],
      "type": "VEC2"
    },
    {
      "bufferView": 0,
      "byteOffset": 3744384,
      "componentType": 5125,
      "count": 64035,
      "type": "SCALAR"
    },
    {
      "bufferView": 2,
      "byteOffset": 6376344,
      "componentType": 5126,
      "count": 65532,
      "max": [
        7.2528181076049805,
        0.6328686475753784,
        7.984898090362549
      ],
      "min": [
        -7.527988433837891,
        -6.359158515930176,
        -8.682848930358887
      ],
      "type": "VEC3"
    },
    {
      "bufferView": 2,
      "byteOffset": 7162728,
      "componentType": 5126,
      "count": 65532,
      "max": [
        0.9999514222145081,
        0.9999949932098389,
        0.9999948740005493
      ],
      "min": [
        -0.9999736547470093,
        -1.0,
        -0.9999992847442627
      ],
      "type": "VEC3"
    },
    {
      "bufferView": 1,
      "byteOffset": 2125448,
      "componentType": 5126,
      "count": 65532,
      "max": [
        1.9997550249099731,
        0.9987789988517761
      ],
      "min": [
        1.0002440214157104,
        0.00024900000425986946
      ],
      "type": "VEC2"
    },
    {
      "bufferView": 0,
      "byteOffset": 4000524,
      "componentType": 5125,
      "count": 312783,
      "type": "SCALAR"
    },
    {
      "bufferView": 2,
      "byteOffset": 7949112,
      "componentType": 5126,
      "count": 65532,
      "max": [
        9.189443588256836,
        0.6315042972564697,
        8.037156105041504
      ],
      "min": [
        -7.5450897216796875,
        -7.369330406188965,
        -8.80345344543457
      ],
      "type": "VEC3"
    },
    {
      "bufferView": 2,
      "byteOffset": 8735496,
      "componentType": 5126,
      "count": 65532,
      "max": [
        0.9999642372131348,
        0.9999986290931702,
        0.9999948740005493
      ],
      "min": [
        -0.9999861121177673,
        -0.9999958276748657,
        -0.999991774559021
      ],
      "type": "VEC3"
    },
    {
      "bufferView": 1,
      "byteOffset": 2649704,
      "componentType": 5126,
      "count": 65532,
      "max": [
        1.9997559785842896,
        0.9997559785842896
      ],
      "min": [
        1.0002440214157104,
        0.00024399999529123306
      ],
      "type": "VEC2"
    },
    {
      "bufferView": 0,
      "byteOffset": 5251656,
      "componentType": 5125,
      "count": 216855,
      "type": "SCALAR"
    },
    {
      "bufferView": 2,
      "byteOffset": 9521880,
      "componentType": 5126,
      "count": 18043,
      "max": [
        9.189180374145508,
        0.7593957185745239,
        8.140772819519043
      ],
      "min": [
        -7.541738033294678,
        -7.309166431427002,
        -8.848100662231445
      ],
      "type": "VEC3"
    },
    {
      "bufferView": 2,
      "byteOffset": 9738396,
      "componentType": 5126,
      "count": 18043,
      "max": [
        0.9999642372131348,
        0.9999486804008484,
        0.9999774098396301
      ],
      "min": [
        -0.9998830556869507,
        -0.9999992847442627,
        -0.9999128580093384
      ],
      "type": "VEC3"
    },
    {
      "bufferView": 1,
      "byteOffset": 3173960,
      "componentType": 5126,
      "count": 18043,
      "max": [
        1.9997559785842896,
        0.99863600730896
      ],
      "min": [
        1.0002440214157104,
        0.00024399999529123306
      ],
      "type": "VEC2"
    },
    {
      "bufferView": 0,
      "byteOffset": 6119076,
      "componentType": 5125,
      "count": 27231,
      "type": "SCALAR"
    },
    {
      "bufferView": 2,
      "byteOffset": 9954912,
      "componentType": 5126,
      "count": 51963,
      "max": [
        9.232670783996582,
        0.826927900314331,
        8.140772819519043
      ],
      "min": [
        -7.5450897216796875,
        -7.369330406188965,
        -8.990421295166016
      ],
      "type": "VEC3"
    },
    {
      "bufferView": 2,
      "byteOffset": 10578468,
      "componentType": 5126,
      "count": 51963,
      "max": [
        0.9999987483024597,
        0.9999973773956299,
        0.9999910593032837
      ],
      "min": [
        -0.9999992847442627,
        -0.999999463558197,
        -0.9999993443489075
      ],
      "type": "VEC3"
    },
    {
      "bufferView": 1,
      "byteOffset": 3318304,
      "componentType": 5126,
      "count": 51963,
      "max": [
        1.998777985572815,
        1.669677972793579
      ],
      "min": [
        1.0002440214157104,
        1.0002700090408325
      ],
      "type": "VEC2"
    },
    {
      "bufferView": 0,
      "byteOffset": 6228000,
      "componentType": 5125,
      "count": 243624,
      "type": "SCALAR"
    }
  ],
  "asset": {
    "extras": {
      "author": "Viesturs Dille (https://sketchfab.com/vdille)",
      "license": "CC-BY-4.0 (http://creativecommons.org/licenses/by/4.0/)",
      "source": "https://sketchfab.com/3d-models/old-wooden-house-in-small-village-a556a7c27fa7458590df1d926cb1be0e",
      "title": "Old wooden house in small village"
    },
    "generator": "Sketchfab-10.93.0",
    "version": "2.0"
  },
  "bufferViews": [
    {
      "buffer": 0,
      "byteLength": 7202496,
      "name": "floatBufferViews",
      "target": 34963
    },
    {
      "buffer": 0,
      "byteLength": 3734008,
      "byteOffset": 7202496,
      "byteStride": 8,
      "name": "floatBufferViews",
      "target": 34962
    },
    {
      "buffer": 0,
      "byteLength": 11202024,
      "byteOffset": 10936504,
      "byteStride": 12,
      "name": "floatBufferViews",
      "target": 34962
    }
  ],
  "buffers": [
    {
      "byteLength": 22138528,
      "uri": "scene.bin"
    }
  ],
  "extensionsUsed": [
    "KHR_materials_unlit"
  ],
  "images": [
    {
      "uri": "textures/kornetu_maaja_Material_u1_v1_baseColor.jpeg"
    },
    {
      "uri": "textures/kornetu_maaja_Material_u1_v2_baseColor.jpeg"
    },
    {
      "uri": "textures/kornetu_maaja_Material_u2_v1_baseColor.jpeg"
    },
    {
      "uri": "textures/kornetu_maaja_Material_u2_v2_baseColor.jpeg"
    }
  ],
  "materials": [
    {
      "doubleSided": true,
      "extensions": {
        "KHR_materials_unlit": {}
      },
      "name": "kornetu_maaja_Material_u1_v1",
      "pbrMetallicRoughness": {
        "baseColorTexture": {
          "index": 0
        },
        "metallicFactor": 0.0
      }
    },
    {
      "doubleSided": true,
      "extensions": {
        "KHR_materials_unlit": {}
      },
      "name": "kornetu_maaja_Material_u1_v2",
      "pbrMetallicRoughness": {
        "baseColorTexture": {
          "index": 1
        },
        "metallicFactor": 0.0
      }
    },
    {
      "doubleSided": true,
      "extensions": {
        "KHR_materials_unlit": {}
      },
      "name": "kornetu_maaja_Material_u2_v1",
      "pbrMetallicRoughness": {
        "baseColorTexture": {
          "index": 2
        },
        "metallicFactor": 0.0
      }
    },
    {
      "doubleSided": true,
      "extensions": {
        "KHR_materials_unlit": {}
      },
      "name": "kornetu_maaja_Material_u2_v2",
      "pbrMetallicRoughness": {
        "baseColorTexture": {
          "index": 3
        },
        "metallicFactor": 0.0
      }
    }
  ],
  "meshes": [
    {
      "name": "Object_0",
      "primitives": [
        {
          "attributes": {
            "NORMAL": 1,
            "POSITION": 0,
            "TEXCOORD_0": 2
          },
          "indices": 3,
          "material": 0,
          "mode": 4
        }
      ]
    },
    {
      "name": "Object_1",
      "primitives": [
        {
          "attributes": {
            "NORMAL": 5,
            "POSITION": 4,
            "TEXCOORD_0": 6
          },
          "indices": 7,
          "material": 0,
          "mode": 4
        }
      ]
    },
    {
      "name": "Object_2",
      "primitives": [
        {
          "attributes": {
            "NORMAL": 9,
            "POSITION": 8,
            "TEXCOORD_0": 10
          },
          "indices": 11,
          "material": 0,
          "mode": 4
        }
      ]
    },
    {
      "name": "Object_3",
      "primitives": [
        {
          "attributes": {
            "NORMAL": 13,
            "POSITION": 12,
            "TEXCOORD_0": 14
          },
          "indices": 15,
          "material": 1,
          "mode": 4
        }
      ]
    },
    {
      "name": "Object_4",
      "primitives": [
        {
          "attributes": {
            "NORMAL": 17,
            "POSITION": 16,
            "TEXCOORD_0": 18
          },
          "indices": 19,
          "material": 1,
          "mode": 4
        }
      ]
    },
    {
      "name": "Object_5",
      "primitives": [
        {
          "attributes": {
            "NORMAL": 21,
            "POSITION": 20,
            "TEXCOORD_0": 22
          },
          "indices": 23,
          "material": 2,
          "mode": 4
        }
      ]
    },
    {
      "name": "Object_6",
      "primitives": [
        {
          "attributes": {
            "NORMAL": 25,
            "POSITION": 24,
            "TEXCOORD_0": 26
          },
          "indices": 27,
          "material": 2,
          "mode": 4
        }
      ]
    },
    {
      "name": "Object_7",
      "primitives": [
        {
          "attributes": {
            "NORMAL": 29,
            "POSITION": 28,
            "TEXCOORD_0": 30
          },
          "indices": 31,
          "material": 2,
          "mode": 4
        }
      ]
    },
    {
      "name": "Object_8",
      "primitives": [
        {
          "attributes": {
            "NORMAL": 33,
            "POSITION": 32,
            "TEXCOORD_0": 34
          },
          "indices": 35,
          "material": 3,
          "mode": 4
        }
      ]
    }
  ],
  "nodes": [
    {
      "children": [
        1
      ],
      "matrix": [
        0.9994698762893677,
        -0.0325571745634079,
        -7.229144963407185e-18,
        0.0,
        -0.0325571745634079,
        -0.9994698762893677,
        -4.969347748660908e-16,
        0.0,
        1.0408340855860843e-17,
        4.968898556501067e-16,
        -1.0,
        0.0,
        -0.08939577639102936,
        -3.15652084350586,
        2.333641052246093,
        1.0
      ],
      "name": "Sketchfab_model"
    },
    {
      "children": [
        2,
        3,
        4,
        5,
        6,
        7,
        8,
        9,
        10
      ],
      "name": "kornetu_maaja.obj.cleaner.materialmerger.gles"
    },
    {
      "mesh": 0,
      "name": "Object_2"
    },
    {
      "mesh": 1,
      "name": "Object_3"
    },
    {
      "mesh": 2,
      "name": "Object_4"
    },
    {
      "mesh": 3,
      "name": "Object_5"
    },
    {
      "mesh": 4,
      "name": "Object_6"
    },
    {
      "mesh": 5,
      "name": "Object_7"
    },
    {
      "mesh": 6,
      "name": "Object_8"
    },
    {
      "mesh": 7,
      "name": "Object_9"
    },
    {
      "mesh": 8,
      "name": "Object_10"
    }
  ],
  "samplers": [
    {
      "magFilter": 9729,
      "minFilter": 9987,
      "wrapS": 10497,
      "wrapT": 10497
    }
  ],
  "scene": 0,
  "scenes": [
    {
      "name": "Sketchfab_Scene",
      "nodes": [
        0
      ]
    }
  ],
  "textures": [
    {
      "sampler": 0,
      "source": 0
    },
    {
      "sampler": 0,
      "source": 1
    },
    {
      "sampler": 0,
      "source": 2
    },
    {
      "sampler": 0,
      "source": 3
    }
  ]
}
