{
  "accessors": [
    {
      "bufferView": 2,
      "componentType": 5126,
      "count": 10718,
      "max": [
        2.4560279846191406,
        50.7593994140625,
        2.4236969947814941
      ],
      "min": [
        -1.9931762218475342,
        -37.300136566162109,
        -16.159767150878906
      ],
      "type": "VEC3"
    },
    {
      "bufferView": 2,
      "byteOffset": 128616,
      "componentType": 5126,
      "count": 10718,
      "max": [
        1,
        1,
        1
      ],
      "min": [
        -1,
        -1,
        -1
      ],
      "type": "VEC3"
    },
    {
      "bufferView": 1,
      "componentType": 5126,
      "count": 10718,
      "max": [
        0.99967497587203979,
        1.8224289417266846
      ],
      "min": [
        0.0016391719691455364,
        0.0022297892719507217
      ],
      "type": "VEC2"
    },
    {
      "bufferView": 0,
      "componentType": 5125,
      "count": 37695,
      "max": [
        10717
      ],
      "min": [
        0
      ],
      "type": "SCALAR"
    },
    {
      "bufferView": 2,
      "byteOffset": 257232,
      "componentType": 5126,
      "count": 2201,
      "max": [
        1.3123106956481934,
        7.1017227172851562,
        9.9271678924560547
      ],
      "min": [
        -1.3123106956481934,
        -7.1017227172851562,
        -9.9271669387817383
      ],
      "type": "VEC3"
    },
    {
      "bufferView": 2,
      "byteOffset": 283644,
      "componentType": 5126,
      "count": 2201,
      "max": [
        1,
        0.99993318319320679,
        0.99999964237213135
      ],
      "min": [
        -1,
        -0.99995726346969604,
        -1
      ],
      "type": "VEC3"
    },
    {
      "bufferView": 1,
      "byteOffset": 85744,
      "componentType": 5126,
      "count": 2201,
      "max": [
        0.67862260341644287,
        1.8623771667480469
      ],
      "min": [
        0.0052317371591925621,
        0.23857399821281433
      ],
      "type": "VEC2"
    },
    {
      "bufferView": 0,
      "byteOffset": 150780,
      "componentType": 5125,
      "count": 8745,
      "max": [
        2200
      ],
      "min": [
        0
      ],
      "type": "SCALAR"
    },
    {
      "bufferView": 2,
      "byteOffset": 310056,
      "componentType": 5126,
      "count": 166,
      "max": [
        0.53638064861297607,
        0.88929653167724609,
        -0.014093279838562012
      ],
      "min": [
        -0.53638064861297607,
        -0.82799434661865234,
        -2.6611948013305664
      ],
      "type": "VEC3"
    },
    {
      "bufferView": 2,
      "byteOffset": 312048,
      "componentType": 5126,
      "count": 166,
      "max": [
        1,
        0.9978184700012207,
        0.87516868114471436
      ],
      "min": [
        -1,
        -0.98598569631576538,
        -1
      ],
      "type": "VEC3"
    },
    {
      "bufferView": 1,
      "byteOffset": 103352,
      "componentType": 5126,
      "count": 166,
      "max": [
        0.99747824668884277,
        0.91760104894638062
      ],
      "min": [
        0.93694001436233521,
        0.76397383213043213
      ],
      "type": "VEC2"
    },
    {
      "bufferView": 0,
      "byteOffset": 185760,
      "componentType": 5125,
      "count": 522,
      "max": [
        165
      ],
      "min": [
        0
      ],
      "type": "SCALAR"
    },
    {
      "bufferView": 2,
      "byteOffset": 314040,
      "componentType": 5126,
      "count": 593,
      "max": [
        0.53499996662139893,
        1.0609922409057617,
        2.0291378498077393
      ],
      "min": [
        -0.16640901565551758,
        -9.6085729598999023,
        -1.0626819133758545
      ],
      "type": "VEC3"
    },
    {
      "bufferView": 2,
      "byteOffset": 321156,
      "componentType": 5126,
      "count": 593,
      "max": [
        1,
        1,
        1
      ],
      "min": [
        -1,
        -1,
        -1
      ],
      "type": "VEC3"
    },
    {
      "bufferView": 1,
      "byteOffset": 104680,
      "componentType": 5126,
      "count": 593,
      "max": [
        0.99915015697479248,
        0.91870570182800293
      ],
      "min": [
        0.002644567983224988,
        0.093073680996894836
      ],
      "type": "VEC2"
    },
    {
      "bufferView": 0,
      "byteOffset": 187848,
      "componentType": 5125,
      "count": 1860,
      "max": [
        592
      ],
      "min": [
        0
      ],
      "type": "SCALAR"
    },
    {
      "bufferView": 2,
      "byteOffset": 328272,
      "componentType": 5126,
      "count": 287,
      "max": [
        2.1841721534729004,
        7.1114749908447266,
        1.6561236381530762
      ],
      "min": [
        -2.1841721534729004,
        -7.1114749908447266,
        -2.6461319923400879
      ],
      "type": "VEC3"
    },
    {
      "bufferView": 2,
      "byteOffset": 331716,
      "componentType": 5126,
      "count": 287,
      "max": [
        1,
        1,
        1
      ],
      "min": [
        -1,
        -1,
        -1
      ],
      "type": "VEC3"
    },
    {
      "bufferView": 1,
      "byteOffset": 109424,
      "componentType": 5126,
      "count": 287,
      "max": [
        0.86119413375854492,
        1.9534827470779419
      ],
      "min": [
        0.36360657215118408,
        0.56159722805023193
      ],
      "type": "VEC2"
    },
    {
      "bufferView": 0,
      "byteOffset": 195288,
      "componentType": 5125,
      "count": 732,
      "max": [
        286
      ],
      "min": [
        0
      ],
      "type": "SCALAR"
    },
    {
      "bufferView": 2,
      "byteOffset": 335160,
      "componentType": 5126,
      "count": 687,
      "max": [
        1.1256659030914307,
        5.1079654693603516,
        0.54120302200317383
      ],
      "min": [
        -1.0030355453491211,
        -0.71838569641113281,
        -0.27373933792114258
      ],
      "type": "VEC3"
    },
    {
      "bufferView": 2,
      "byteOffset": 343404,
      "componentType": 5126,
      "count": 687,
      "max": [
        1,
        1,
        1
      ],
      "min": [
        -1,
        -1,
        -1
      ],
      "type": "VEC3"
    },
    {
      "bufferView": 1,
      "byteOffset": 111720,
      "componentType": 5126,
      "count": 687,
      "max": [
        0.96092194318771362,
        1.9402108192443848
      ],
      "min": [
        0.0018468014895915985,
        0.40154305100440979
      ],
      "type": "VEC2"
    },
    {
      "bufferView": 0,
      "byteOffset": 198216,
      "componentType": 5125,
      "count": 1848,
      "max": [
        686
      ],
      "min": [
        0
      ],
      "type": "SCALAR"
    },
    {
      "bufferView": 2,
      "byteOffset": 351648,
      "componentType": 5126,
      "count": 520,
      "max": [
        0.55761587619781494,
        2.7965412139892578,
        0.55761468410491943
      ],
      "min": [
        -0.55761581659317017,
        -2.7965431213378906,
        -0.5576169490814209
      ],
      "type": "VEC3"
    },
    {
      "bufferView": 2,
      "byteOffset": 357888,
      "componentType": 5126,
      "count": 520,
      "max": [
        1,
        1,
        1
      ],
      "min": [
        -1,
        -1,
        -1
      ],
      "type": "VEC3"
    },
    {
      "bufferView": 1,
      "byteOffset": 117216,
      "componentType": 5126,
      "count": 520,
      "max": [
        0.74254244565963745,
        0.99164175987243652
      ],
      "min": [
        0.099764615297317505,
        0.18188044428825378
      ],
      "type": "VEC2"
    },
    {
      "bufferView": 0,
      "byteOffset": 205608,
      "componentType": 5125,
      "count": 2286,
      "max": [
        519
      ],
      "min": [
        0
      ],
      "type": "SCALAR"
    }
  ],
  "asset": {
    "extras": {
      "author": "ErhanMatur (https://sketchfab.com/erhanmatur)",
      "license": "CC-BY-4.0 (http://creativecommons.org/licenses/by/4.0/)",
      "source": "https://sketchfab.com/3d-models/ak-47-pbr-16f2058586d643818871bfb1a90f47a1",
      "title": "AK 47 PBR"
    },
    "generator": "Sketchfab-10.11.2",
    "version": "2.0"
  },
  "bufferViews": [
    {
      "buffer": 0,
      "byteLength": 214752,
      "byteOffset": 0,
      "name": "floatBufferViews",
      "target": 34963
    },
    {
      "buffer": 0,
      "byteLength": 121376,
      "byteOffset": 214752,
      "byteStride": 8,
      "name": "floatBufferViews",
      "target": 34962
    },
    {
      "buffer": 0,
      "byteLength": 364128,
      "byteOffset": 336128,
      "byteStride": 12,
      "name": "floatBufferViews",
      "target": 34962
    }
  ],
  "buffers": [
    {
      "byteLength": 700256,
      "uri": "scene.bin"
    }
  ],
  "images": [
    {
      "uri": "textures/WPNM_AKM_baseColor.png"
    },
    {
      "uri": "textures/WPNM_AKM_metallicRoughness.png"
    }
  ],
  "materials": [
    {
      "doubleSided": true,
      "emissiveFactor": [
        0,
        0,
        0
      ],
      "name": "WPNM_AKM",
      "pbrMetallicRoughness": {
        "baseColorFactor": [
          1,
          1,
          1,
          1
        ],
        "baseColorTexture": {
          "index": 0,
          "texCoord": 0
        },
        "metallicFactor": 0.3908411311554153,
        "metallicRoughnessTexture": {
          "index": 1,
          "texCoord": 0
        },
        "roughnessFactor": 0.61580753819868794
      }
    },
    {
      "doubleSided": true,
      "emissiveFactor": [
        0,
        0,
        0
      ],
      "name": "WPNM_calibers",
      "pbrMetallicRoughness": {
        "baseColorFactor": [
          0.13788420204419904,
          0.070380388101180386,
          0.012881002071719695,
          1
        ],
        "metallicFactor": 0,
        "roughnessFactor": 0.81588475639786218
      }
    }
  ],
  "meshes": [
    {
      "name": "WPN_AKM_WPNM_AKM_0",
      "primitives": [
        {
          "attributes": {
            "NORMAL": 1,
            "POSITION": 0,
            "TEXCOORD_0": 2
          },
          "indices": 3,
          "material": 0,
          "mode": 4
        }
      ]
    },
    {
      "name": "WPN_AKM_magazine_WPNM_AKM_0",
      "primitives": [
        {
          "attributes": {
            "NORMAL": 5,
            "POSITION": 4,
            "TEXCOORD_0": 6
          },
          "indices": 7,
          "material": 0,
          "mode": 4
        }
      ]
    },
    {
      "name": "WPN_AKM_trigger_WPNM_AKM_0",
      "primitives": [
        {
          "attributes": {
            "NORMAL": 9,
            "POSITION": 8,
            "TEXCOORD_0": 10
          },
          "indices": 11,
          "material": 0,
          "mode": 4
        }
      ]
    },
    {
      "name": "WPN_AKM_safetyswitch_WPNM_AKM_0",
      "primitives": [
        {
          "attributes": {
            "NORMAL": 13,
            "POSITION": 12,
            "TEXCOORD_0": 14
          },
          "indices": 15,
          "material": 0,
          "mode": 4
        }
      ]
    },
    {
      "name": "WPN_AKM_bolt_carrier_WPNM_AKM_0",
      "primitives": [
        {
          "attributes": {
            "NORMAL": 17,
            "POSITION": 16,
            "TEXCOORD_0": 18
          },
          "indices": 19,
          "material": 0,
          "mode": 4
        }
      ]
    },
    {
      "name": "WPN_AKM_rear_sight_leaf_WPNM_AKM_0",
      "primitives": [
        {
          "attributes": {
            "NORMAL": 21,
            "POSITION": 20,
            "TEXCOORD_0": 22
          },
          "indices": 23,
          "material": 0,
          "mode": 4
        }
      ]
    },
    {
      "name": "cal_7_62x39_WPNM_calibers_0",
      "primitives": [
        {
          "attributes": {
            "NORMAL": 25,
            "POSITION": 24,
            "TEXCOORD_0": 26
          },
          "indices": 27,
          "material": 1,
          "mode": 4
        }
      ]
    }
  ],
  "nodes": [
    {
      "children": [
        1
      ],
      "name": "RootNode (gltf orientation matrix)",
      "rotation": [
        -0.70710678118654746,
        -0,
        -0,
        0.70710678118654757
      ]
    },
    {
      "children": [
        2
      ],
      "name": "RootNode (model correction matrix)"
    },
    {
      "children": [
        3
      ],
      "matrix": [
        1,
        0,
        0,
        0,
        0,
        0,
        1,
        0,
        0,
        -1,
        0,
        0,
        0,
        0,
        0,
        1
      ],
      "name": "WPN_AKM.FBX"
    },
    {
      "children": [
        4,
        6,
        8,
        10,
        12,
        14,
        16
      ],
      "name": "RootNode"
    },
    {
      "children": [
        5
      ],
      "matrix": [
        1,
        0,
        0,
        0,
        0,
        2.2204460492503131e-16,
        -1,
        0,
        0,
        1,
        2.2204460492503131e-16,
        0,
        0.44712921977043152,
        4.0943608283996582,
        8.3093423843383789,
        1
      ],
      "name": "WPN_AKM"
    },
    {
      "mesh": 0,
      "name": "WPN_AKM_WPNM_AKM_0"
    },
    {
      "children": [
        7
      ],
      "matrix": [
        1,
        0,
        0,
        0,
        0,
        2.2204460492503131e-16,
        -1,
        0,
        0,
        1,
        2.2204460492503131e-16,
        0,
        0.44713303446769714,
        -9.0363578796386719,
        2.5470166206359863,
        1
      ],
      "name": "WPN_AKM_magazine"
    },
    {
      "mesh": 1,
      "name": "WPN_AKM_magazine_WPNM_AKM_0"
    },
    {
      "children": [
        9
      ],
      "matrix": [
        1,
        0,
        0,
        0,
        0,
        2.2204460492503131e-16,
        -1,
        0,
        0,
        1,
        2.2204460492503131e-16,
        0,
        0.44713017344474792,
        -1.4093571901321411,
        -9.6864290237426758,
        1
      ],
      "name": "WPN_AKM_trigger"
    },
    {
      "mesh": 2,
      "name": "WPN_AKM_trigger_WPNM_AKM_0"
    },
    {
      "children": [
        11
      ],
      "matrix": [
        1,
        0,
        0,
        0,
        0,
        2.2204460492503131e-16,
        -1,
        0,
        0,
        1,
        2.2204460492503131e-16,
        0,
        -1.6742810010910034,
        0.62712877988815308,
        -11.843501091003418,
        1
      ],
      "name": "WPN_AKM_safetyswitch"
    },
    {
      "mesh": 3,
      "name": "WPN_AKM_safetyswitch_WPNM_AKM_0"
    },
    {
      "children": [
        13
      ],
      "matrix": [
        1,
        0,
        0,
        0,
        0,
        2.2204460492503131e-16,
        -1,
        0,
        0,
        1,
        2.2204460492503131e-16,
        0,
        -0.59399795532226562,
        3.5644183158874512,
        4.3838791847229004,
        1
      ],
      "name": "WPN_AKM_bolt_carrier"
    },
    {
      "mesh": 4,
      "name": "WPN_AKM_bolt_carrier_WPNM_AKM_0"
    },
    {
      "children": [
        15
      ],
      "matrix": [
        1,
        0,
        0,
        0,
        0,
        2.2204460492503131e-16,
        -1,
        0,
        0,
        1,
        2.2204460492503131e-16,
        0,
        0.38580963015556335,
        6.0779786109924316,
        9.8217372894287109,
        1
      ],
      "name": "WPN_AKM_rear_sight_leaf"
    },
    {
      "mesh": 5,
      "name": "WPN_AKM_rear_sight_leaf_WPNM_AKM_0"
    },
    {
      "children": [
        17
      ],
      "matrix": [
        1,
        0,
        0,
        0,
        0,
        2.2204460492503131e-16,
        -1,
        0,
        0,
        1,
        2.2204460492503131e-16,
        0,
        1.7074938796213246e-08,
        9.2088775634765625,
        -0.39062908291816711,
        1
      ],
      "name": "cal_7_62x39"
    },
    {
      "mesh": 6,
      "name": "cal_7_62x39_WPNM_calibers_0"
    }
  ],
  "samplers": [
    {
      "magFilter": 9729,
      "minFilter": 9729,
      "wrapS": 10497,
      "wrapT": 10497
    },
    {
      "magFilter": 9729,
      "minFilter": 9987,
      "wrapS": 10497,
      "wrapT": 10497
    }
  ],
  "scene": 0,
  "scenes": [
    {
      "name": "OSG_Scene",
      "nodes": [
        0
      ]
    }
  ],
  "textures": [
    {
      "sampler": 0,
      "source": 0
    },
    {
      "sampler": 1,
      "source": 1
    }
  ]
}

